<?xml version="1.0" encoding="utf-8"?>
<!-- Generator: Adobe Illustrator 24.0.0, SVG Export Plug-In . SVG Version: 6.00 Build 0)  -->
<svg version="1.1" id="Layer_2" xmlns="http://www.w3.org/2000/svg" xmlns:xlink="http://www.w3.org/1999/xlink" x="0px" y="0px"
	 viewBox="0 0 256 256" style="enable-background:new 0 0 256 256;" xml:space="preserve">
<style type="text/css">
	.st0{fill:url(#SVGID_1_);}
	.st1{opacity:0.35;fill:url(#SVGID_2_);enable-background:new    ;}
	.st2{fill:url(#SVGID_3_);}
	.st3{opacity:0.41;fill:url(#SVGID_4_);enable-background:new    ;}
	.st4{fill:url(#SVGID_5_);}
	.st5{fill:url(#SVGID_6_);}
</style>
<g>
	
		<linearGradient id="SVGID_1_" gradientUnits="userSpaceOnUse" x1="68.9687" y1="88.2157" x2="220.8856" y2="88.2157" gradientTransform="matrix(1 0 0 -1 0 258)">
		<stop  offset="0" style="stop-color:#0C59A4"/>
		<stop  offset="1" style="stop-color:#114A8B"/>
	</linearGradient>
	<path class="st0" d="M215.8,181.3c-2.9,1.5-5.9,2.8-9,4c-9.4,3.5-19.7,5.5-30.6,5.5c-40.3,0-75.4-27.7-75.4-63.3
		c0-10,5.8-18.7,14-23.2C78.3,105.8,69,143.8,69,166c0,62.9,58,69.3,70.5,69.3c6.7,0,16.9-2,23-3.9c0.4-0.1,0.7-0.2,1.1-0.4
		c23.6-8.2,43.6-24.2,56.7-45C222.2,183.1,218.9,179.6,215.8,181.3z"/>
	
		<radialGradient id="SVGID_2_" cx="152.8779" cy="73.5215" r="81.254" gradientTransform="matrix(1 0 0 -0.9511 0 240.8436)" gradientUnits="userSpaceOnUse">
		<stop  offset="0.7166" style="stop-color:#000000;stop-opacity:0"/>
		<stop  offset="0.9459" style="stop-color:#000000;stop-opacity:0.53"/>
		<stop  offset="1" style="stop-color:#000000"/>
	</radialGradient>
	<path class="st1" d="M215.8,181.3c-2.9,1.5-5.9,2.8-9,4c-9.4,3.5-19.7,5.5-30.6,5.5c-40.3,0-75.4-27.7-75.4-63.3
		c0-10,5.8-18.7,14-23.2C78.3,105.8,69,143.8,69,166c0,62.9,58,69.3,70.5,69.3c6.7,0,16.9-2,23-3.9c0.4-0.1,0.7-0.2,1.1-0.4
		c23.6-8.2,43.6-24.2,56.7-45C222.2,183.1,218.9,179.6,215.8,181.3z"/>
	
		<linearGradient id="SVGID_3_" gradientUnits="userSpaceOnUse" x1="149.0608" y1="154.1215" x2="54.1674" y2="50.7603" gradientTransform="matrix(1 0 0 -1 0 258)">
		<stop  offset="0" style="stop-color:#1B9DE2"/>
		<stop  offset="0.1616" style="stop-color:#1595DF"/>
		<stop  offset="0.6675" style="stop-color:#0680D7"/>
		<stop  offset="1" style="stop-color:#0078D4"/>
	</linearGradient>
	<path class="st2" d="M109,224.6c-7.6-4.7-14.2-10.9-19.4-18.2c-8.1-11.3-12.9-25.3-12.9-40.4c0-22.3,10.4-42,26.3-54.5
		c3.6-2.8,8.3-5.7,11.7-7.3c2.7-1.3,7.2-3.5,13.2-3.4c10,0.1,17.6,5.2,21.9,11c3.3,4.5,5.3,9.9,5.4,15.9c0-0.2,20.8-67.8-68.2-67.8
		C49.8,59.9,19,95.4,19,126.6c0,19.7,4.6,35.5,10.3,47.7c12.8,27.2,36.5,48.3,65.5,57.6c10.5,3.4,21.7,5.2,33.3,5.2
		c12,0,23.6-2,34.5-5.6c-6.1,1.9-12.6,3-19.4,3C130.6,234.4,119,230.8,109,224.6z"/>
	
		<radialGradient id="SVGID_4_" cx="-415.8737" cy="-60.5456" r="122.0171" gradientTransform="matrix(0.1484 -0.9889 -0.7969 -0.1196 93.1842 -230.3114)" gradientUnits="userSpaceOnUse">
		<stop  offset="0.7629" style="stop-color:#000000;stop-opacity:0"/>
		<stop  offset="0.9459" style="stop-color:#000000;stop-opacity:0.5"/>
		<stop  offset="1" style="stop-color:#000000"/>
	</radialGradient>
	<path class="st3" d="M109,224.6c-7.6-4.7-14.2-10.9-19.4-18.2c-8.1-11.3-12.9-25.3-12.9-40.4c0-22.3,10.4-42,26.3-54.5
		c3.6-2.8,8.3-5.7,11.7-7.3c2.7-1.3,7.2-3.5,13.2-3.4c10,0.1,17.6,5.2,21.9,11c3.3,4.5,5.3,9.9,5.4,15.9c0-0.2,20.8-67.8-68.2-67.8
		C49.8,59.9,19,95.4,19,126.6c0,19.7,4.6,35.5,10.3,47.7c12.8,27.2,36.5,48.3,65.5,57.6c10.5,3.4,21.7,5.2,33.3,5.2
		c12,0,23.6-2,34.5-5.6c-6.1,1.9-12.6,3-19.4,3C130.6,234.4,119,230.8,109,224.6z"/>
	
		<radialGradient id="SVGID_5_" cx="26.4322" cy="621.4266" r="172.4436" gradientTransform="matrix(-3.715000e-02 0.9993 2.1284 7.913000e-02 -1281.1801 -16.754)" gradientUnits="userSpaceOnUse">
		<stop  offset="0" style="stop-color:#35C1F1"/>
		<stop  offset="0.1108" style="stop-color:#34C1ED"/>
		<stop  offset="0.2316" style="stop-color:#2FC2DF"/>
		<stop  offset="0.3145" style="stop-color:#2BC3D2"/>
		<stop  offset="0.6734" style="stop-color:#36C752"/>
	</radialGradient>
	<path class="st4" d="M148.7,145.8c-0.7,0.9-2.8,2.1-2.8,4.8c0,2.2,1.4,4.4,4,6.2c12.3,8.5,35.3,7.4,35.4,7.4
		c9.5,0,18.1-2.7,25.8-7.1c3.5-2,6.7-4.5,9.6-7.2c10-9.5,16.1-22.9,16.3-37.8c0.2-19.1-6.8-31.8-9.7-37.4
		C209.3,39.3,170.4,19,128,19C68.3,19,19.8,67,19,126.5c0.4-31.1,31.3-56.3,68.1-56.3c3,0,20,0.3,35.8,8.6
		c13.9,7.3,21.2,16.1,26.3,24.9c5.3,9.1,6.2,20.6,6.2,25.1S153,140.2,148.7,145.8z"/>
	
		<radialGradient id="SVGID_6_" cx="310.1194" cy="654.1626" r="82.9185" gradientTransform="matrix(0.2811 0.9597 0.7835 -0.2295 -374.2151 -62.447)" gradientUnits="userSpaceOnUse">
		<stop  offset="0" style="stop-color:#66EB6E"/>
		<stop  offset="1" style="stop-color:#66EB6E;stop-opacity:0"/>
	</radialGradient>
	<path class="st5" d="M148.7,145.8c-0.7,0.9-2.8,2.1-2.8,4.8c0,2.2,1.4,4.4,4,6.2c12.3,8.5,35.3,7.4,35.4,7.4
		c9.5,0,18.1-2.7,25.8-7.1c3.5-2,6.7-4.5,9.6-7.2c10-9.5,16.1-22.9,16.3-37.8c0.2-19.1-6.8-31.8-9.7-37.4
		C209.3,39.3,170.4,19,128,19C68.3,19,19.8,67,19,126.5c0.4-31.1,31.3-56.3,68.1-56.3c3,0,20,0.3,35.8,8.6
		c13.9,7.3,21.2,16.1,26.3,24.9c5.3,9.1,6.2,20.6,6.2,25.1S153,140.2,148.7,145.8z"/>
</g>
</svg>
